<svg xmlns="http://www.w3.org/2000/svg" viewBox="0 0 271.13 156.07"><defs><style>.cls-1{fill:#f5ff3f;stroke:#000;stroke-miterlimit:10;}</style></defs><g id="레이어_2" data-name="레이어 2"><g id="레이어_1-2" data-name="레이어 1"><ellipse class="cls-1" cx="135.56" cy="78.03" rx="65" ry="141.5" transform="translate(16.49 179.47) rotate(-70.35)"/><path d="M78.57,56.55a13,13,0,0,1,17.17-8.11c6.23,2.22,9.25,7.38,8.71,12.89l-3.22-1.15c.19-3.77-2.08-7.23-6.48-8.8-5.54-2-11,.63-13,6.3a9.9,9.9,0,0,0,6.09,13.11c4.52,1.61,8.85.17,11-3L102,69c-2.85,4.66-8.88,7-15.27,4.71A13,13,0,0,1,78.57,56.55Z"/><path d="M102.86,78.84,111.74,54l3.11,1.11L106,80Z"/><path d="M110.83,81.72,117,64.45l3.1,1.11-6.16,17.27Zm11.89-21.88a2.19,2.19,0,1,1-1.35-2.79A2.13,2.13,0,0,1,122.72,59.84Z"/><path d="M126.63,87.8A9.23,9.23,0,0,1,121,75.6c1.85-5.18,6.94-7.72,12-5.9a8.63,8.63,0,0,1,5.89,9.1l-3.17-1.13a5.35,5.35,0,0,0-3.7-5.23c-3.44-1.22-6.72.66-8,4.25s.08,7.13,3.51,8.35a5.44,5.44,0,0,0,6.26-1.74L137,84.43A8.65,8.65,0,0,1,126.63,87.8Z"/><path d="M147.84,86l-4.69,2.37-1.54,4.31-3.1-1.11,8.88-24.89,3.11,1.1-6,16.88,11.88-6.15,3.65,1.3-9.46,4.81,4,12.68L150.89,96Z"/><path d="M165.65,101.29,171.82,84l3.1,1.1-6.16,17.27Zm11.89-21.88a2.19,2.19,0,1,1-1.35-2.79A2.13,2.13,0,0,1,177.54,79.41Z"/><path d="M187.86,92.85,184,91.48,178.86,106l-3.1-1.11,5.17-14.5L177.11,89l1-2.75,3.83,1.37,1.87-5.24,3.11,1.1L185,88.74l3.83,1.36Z"/><path d="M185.75,106.47a2.37,2.37,0,1,1,1.44,3A2.32,2.32,0,0,1,185.75,106.47Zm8.33-22.28,3.83,1.37-7,17.17-2.29-.82Z"/></g></g></svg>