<svg xmlns="http://www.w3.org/2000/svg" viewBox="0 0 278.24 142.95"><defs><style>.cls-1{fill:#f5ff3f;stroke:#000;stroke-miterlimit:10;}</style></defs><g id="레이어_2" data-name="레이어 2"><g id="레이어_1-2" data-name="레이어 1"><ellipse class="cls-1" cx="139.12" cy="71.48" rx="141.5" ry="65" transform="translate(-12.57 33.37) rotate(-13.09)"/><path d="M87.37,78.39,64.46,84.5l-2.32-8.69L65.2,75l1.68,6.27L86.73,76Zm-8.92,7.15.61,2.29,9.86-2.63,1.71,6.43L70.91,96.89l.51,1.92,20.19-5.39.62,2.32L69,101.92l-1.72-6.43,19.73-5.25-.51-1.92L66.75,93.59l-.62-2.32L76,88.64l-.61-2.29L63.76,89.46,63.12,87l26.37-7,.64,2.42Z"/><path d="M107.37,87.34a18.82,18.82,0,0,0,6.5-3.06l.74,2.78A18.09,18.09,0,0,1,108,90.19L98,92.84,94.43,79.39l10.48-2.79-2-7.61L92.34,71.8,91.59,69l13.57-3.62,3.53,13.24L98.21,81.4l2.08,7.82Zm7.49-25.58,7,26.41-3.09.82-3.4-12.74-5.07,1.35-.79-3,5.07-1.35-2.85-10.69Z"/><path d="M152.05,75.69l.77,2.88-26.37,7-.77-2.88,11.59-3.09-1.58-5.94-9.86,2.63-4.15-15.55,3-.81L126,64.69l16.82-4.48-1.27-4.73,3-.81,4.14,15.55-9.89,2.64,1.58,5.94Zm-23.92-2.93L145,68.28,143.53,63l-16.82,4.48Z"/><path d="M160.75,61.85l9.5,9.92-2.2,2-7-7.42c.08,5.64-1.45,9.23-4.77,10.91l-.83-3.09c3.81-2.47,3.12-10.8,0-22.59l3-.66A91.22,91.22,0,0,1,160.75,61.85Zm4.61-13.38,2.91-.78,6.87,25.79-2.9.77-3.74-14-4.17,1.11-.77-2.91,4.17-1.11Zm9.52-2.71,7,26.41-2.9.77-7-26.4Z"/><path d="M211.56,59.9l.75,2.81-26.37,7-.75-2.81,6.06-1.62-1.91-7.14c-3.4-.59-5.78-2.43-6.57-5.4-1.3-4.89,2.56-9.29,9.76-11.21s12.75,0,14.05,4.86c.78,2.94-.36,5.76-3,7.92l1.91,7.17Zm-15.49-5.08c5.19-1.38,8.13-4.39,7.29-7.54s-4.89-4.33-10.09-2.94-8.11,4.35-7.25,7.56S190.87,56.2,196.07,54.82Zm-1.76,9.67,8.13-2.16-1.65-6.19a23.23,23.23,0,0,1-8.13,2.17Z"/><path d="M209.62,37.56l3.92-1,4,18.11-2.35.63Zm5.78,23.07a2.37,2.37,0,1,1,2.9,1.68A2.32,2.32,0,0,1,215.4,60.63Z"/></g></g></svg>